<svg height='100px' width='100px'  fill="#000000" xmlns="http://www.w3.org/2000/svg" xmlns:xlink="http://www.w3.org/1999/xlink" viewBox="0 0 60 50" version="1.1" x="0px" y="0px"><title>Construction - Outline - 080 - Door Plan</title><desc>Created with Sketch.</desc><g stroke="none" stroke-width="1" fill="none" fill-rule="evenodd"><g fill-rule="nonzero" fill="#000000"><path d="M1,48 L6,48 L6,49 C5.99984601,49.2652637 6.1051534,49.5197071 6.29272317,49.7072768 C6.48029294,49.8948466 6.73473633,50.000154 7,50 L11,50 C11.2652637,50.000154 11.5197071,49.8948466 11.7072768,49.7072768 C11.8948466,49.5197071 12.000154,49.2652637 12,49 L12,43 L15,43 C15.2652637,43.000154 15.5197071,42.8948466 15.7072768,42.7072768 C15.8948466,42.5197071 16.000154,42.2652637 16,42 L16,5.02246 C16.6394,5.04199 17.2771,5.07336 17.9043,5.12988 C17.93457,5.13281 17.96485,5.13379 17.99512,5.13379 C18.5297464,5.13324143 18.9693921,4.71230411 18.9931739,4.17820662 C19.0169557,3.64410912 18.6164619,3.18576286 18.084,3.1377 C17.39748,3.07544 16.69948,3.04224 16,3.02222 L16,1 C16.000154,0.734736333 15.8948466,0.480292941 15.7072768,0.292723172 C15.5197071,0.105153403 15.2652637,-0.000153986934 15,9.49892976e-16 L11,9.49892976e-16 C10.7347363,-0.000153986934 10.4802929,0.105153403 10.2927232,0.292723172 C10.1051534,0.480292941 9.99984601,0.734736333 10,1 L10,3 L9,3 C7.34389511,3.00180771 6.00180771,4.34389511 6,6 L6,7 C6.00180771,8.65610489 7.34389511,9.99819229 9,10 L10,10 L10,36 L7,36 C6.73473633,35.999846 6.48029294,36.1051534 6.29272317,36.2927232 C6.1051534,36.4802929 5.99984601,36.7347363 6,37 L6,38 L1,38 C0.734736333,37.999846 0.480292941,38.1051534 0.292723172,38.2927232 C0.105153403,38.4802929 -0.000153986934,38.7347363 -7.77156091e-16,39 L-7.77156091e-16,47 C-0.000153986934,47.2652637 0.105153403,47.5197071 0.292723172,47.7072768 C0.480292941,47.8948466 0.734736333,48.000154 1,48 Z M12,2 L14,2 L14,41 L12,41 L12,2 Z M9,8 C8.44787068,7.99962493 8.00037507,7.55212932 8,7 L8,6 C8.00037507,5.44787068 8.44787068,5.00037507 9,5 L10,5 L10,8 L9,8 Z M8,38 L10,38 L10,48 L8,48 L8,38 Z M2,40 L6,40 L6,46 L2,46 L2,40 Z"></path><path d="M59,38 L53,38 L53,37 C53.000154,36.7347363 52.8948466,36.4802929 52.7072768,36.2927232 C52.5197071,36.1051534 52.2652637,35.999846 52,36 L48.97876,36 C48.95996,35.35217 48.92976,34.70422 48.875,34.06348 C48.8280779,33.5133519 48.3440731,33.1054229 47.793945,33.152345 C47.2438169,33.1992672 46.8358879,33.6832719 46.88281,34.2334 C46.96094,35.14746 47,36.0791 47,37 L47,49 C46.999846,49.2652637 47.1051534,49.5197071 47.2927232,49.7072768 C47.4802929,49.8948466 47.7347363,50.000154 48,50 L52,50 C52.2652637,50.000154 52.5197071,49.8948466 52.7072768,49.7072768 C52.8948466,49.5197071 53.000154,49.2652637 53,49 L53,48 L59,48 C59.2652637,48.000154 59.5197071,47.8948466 59.7072768,47.7072768 C59.8948466,47.5197071 60.000154,47.2652637 60,47 L60,39 C60.000154,38.7347363 59.8948466,38.4802929 59.7072768,38.2927232 C59.5197071,38.1051534 59.2652637,37.999846 59,38 L59,38 Z M51,48 L49,48 L49,38 L51,38 L51,48 Z M58,46 L53,46 L53,40 L58,40 L58,46 Z"></path><path d="M28.99512,6.00488 C28.491914,5.77727793 27.8994771,6.00069903 27.671875,6.503905 C27.4442729,7.00711097 27.667694,7.59954793 28.1709,7.82715 C29.0469,8.22266 29.9189,8.66602 30.76367,9.14551 C31.244224,9.41787751 31.8545875,9.24910901 32.126955,8.768555 C32.3993225,8.28800099 32.230554,7.67763751 31.75,7.40527 C30.85254,6.89648 29.92578,6.4248 28.99512,6.00488 Z"></path><path d="M22.15625,3.75488 C21.6163585,3.63892232 21.0846877,3.98258854 20.96873,4.52248001 C20.8527723,5.06237147 21.1964385,5.59404227 21.73633,5.71 C22.67676,5.91215 23.62305,6.1602 24.54785,6.44926 C24.6443653,6.47888157 24.7447415,6.49401971 24.8457,6.49418 C25.3400355,6.49433664 25.7603369,6.13333298 25.8347883,5.64463611 C25.9092397,5.15593924 25.6155061,4.6861547 25.14355,4.5391 C24.16016,4.2334 23.15527,3.96875 22.15625,3.75488 Z"></path><path d="M39.09277,14.42676 C38.6788543,14.7925789 38.6395204,15.4245489 39.00488,15.83887 C39.64746,16.56641 40.26074,17.32813 40.82812,18.10352 C41.038917,18.3924762 41.3880084,18.5468245 41.7436015,18.5082937 C42.0991946,18.4697629 42.4071225,18.2442224 42.5511332,17.9168205 C42.6951439,17.5894187 42.6533005,17.210028 42.4414,16.92188 C41.83886,16.09864 41.18749,15.28907 40.50488,14.51465 C40.1390428,14.1007719 39.5071047,14.0614399 39.09277,14.42676 Z"></path><path d="M46.31934,30.40039 C46.3902655,30.7527064 46.6447909,31.039869 46.9860429,31.1525826 C47.3272949,31.2652963 47.7027854,31.1862245 47.9696016,30.9454623 C48.2364177,30.7047002 48.3535204,30.3392792 48.27634,29.98828 C48.06443,28.97949 47.80466,27.97266 47.50486,26.99707 C47.3425187,26.4690554 46.7828746,26.1726187 46.25486,26.33496 C45.7268454,26.4973013 45.4304087,27.0569454 45.59275,27.58496 C45.875,28.50293 46.11914,29.4502 46.31934,30.40039 Z"></path><path d="M46.05859,23.14258 C45.63574,22.19922 45.16894,21.27149 44.66992,20.38184 C44.495153,20.0695392 44.1668759,19.8743803 43.8090261,19.8700435 C43.4511763,19.8657067 43.118266,20.0528525 42.9359819,20.3608262 C42.7536977,20.6687998 42.7498075,21.0506869 42.92578,21.36231 C43.39551,22.19825 43.83594,23.07231 44.23242,23.95899 C44.3777713,24.2859743 44.6867353,24.5103952 45.0426405,24.5475066 C45.3985457,24.584618 45.7471621,24.4287651 45.9568446,24.1388013 C46.1665271,23.8488376 46.205326,23.4689453 46.05859,23.14258 L46.05859,23.14258 Z"></path><path d="M33.80371,9.85938 C33.6457293,10.072451 33.5789835,10.3396085 33.6181901,10.6019441 C33.6573968,10.8642798 33.799336,11.1002488 34.01271,11.25782 C34.78908,11.83302 35.54884,12.4502 36.27052,13.09282 C36.6833305,13.458183 37.3139401,13.4206418 37.6804873,13.0088825 C38.0470345,12.5971232 38.0113048,11.9664084 37.6006,11.59868 C36.834,10.91606 36.02736,10.26079 35.20216,9.65044 C34.9891413,9.49232114 34.7219504,9.42548488 34.4595732,9.46468621 C34.197196,9.50388753 33.9612092,9.6459027 33.80371,9.85938 L33.80371,9.85938 Z"></path></g></g></svg>